<svg width="13" height="13" viewBox="0 0 13 13" fill="none" xmlns="http://www.w3.org/2000/svg">
<path d="M0.601356 1.03322C0.601356 1.60149 1.0663 2.06644 1.63458 2.06644H9.47672L0.301722 11.2414C0.206064 11.3371 0.130185 11.4507 0.0784151 11.5756C0.0266456 11.7006 3.18731e-09 11.8346 0 11.9699C-3.18731e-09 12.1051 0.0266456 12.2391 0.0784151 12.3641C0.130185 12.4891 0.206064 12.6026 0.301722 12.6983C0.397379 12.7939 0.510941 12.8698 0.635924 12.9216C0.760907 12.9734 0.894862 13 1.03014 13C1.16542 13 1.29938 12.9734 1.42436 12.9216C1.54934 12.8698 1.6629 12.7939 1.75856 12.6983L10.9336 3.52328V11.3654C10.9336 11.9337 11.3985 12.3986 11.9668 12.3986C12.5351 12.3986 13 11.9337 13 11.3654V1.03322C13 0.464949 12.5351 0 11.9668 0H1.63458C1.0663 0 0.601356 0.464949 0.601356 1.03322Z" fill="#F5F1ED"/>
</svg>
